# xmcd CD database file
#
# Track frame offsets:
#	150
#	22642
#	44822
#	65385
#	91758
#	114063
#	139482
#	161614
#	182781
#	203947
#	230402
#	241011
#
# Disc length: 3497 seconds
#
# Revision: 16
# Processed by: cddbd v1.5.1PL0 Copyright (c) Steve Scherf et al.
# Submitted via: CDex 1.51
#
DISCID=960da70c
DTITLE=sibasaki kou - mitsu
DYEAR=2004
DGENRE=
TTITLE0=Fantasista
TTITLE1=Ukigumo
TTITLE2=kiseki
TTITLE3=Nemurenai yoru ha nemuranai yume wo
TTITLE4=Inori
TTITLE5=Omoide dake deha turasugiru
TTITLE6=Sinai
TTITLE7=wasurenagusa
TTITLE8=Boukyaku
TTITLE9=Ikutuka no sora
TTITLE10=Fuyuzora
TTITLE11=Tsuki no sizuku
EXTD=YEAR: 2004
EXTT0=Fantasista
EXTT1=Ukigumo
EXTT2=Kouseki
EXTT3=Nemurenai yoru ha nemuranai yume wo
EXTT4=Inori
EXTT5=Omoide dake deha turasugiru
EXTT6=Sinai
EXTT7=Sourensou
EXTT8=Boukyaku
EXTT9=Ikutuka no sora
EXTT10=Fuyuzora
EXTT11=Tsuki no sizuku
PLAYORDER=
